<svg id="b8bf35f9-b7e7-4b64-9af3-c401ff25a216" data-name="Ebene 1" xmlns="http://www.w3.org/2000/svg" width="202.08" height="28.07" viewBox="0 0 202.08 28.07"><defs><style>.e5c71917-540d-4817-bbfd-b740862f7ff3{fill:#101114;}.b166c7c2-5895-40cc-9c3a-5ff0d33d8fdc{fill:#009efa;}.abd44795-e968-4b24-be1b-e8a24f1f3913{fill:#f23d65;}</style></defs><title>bezahlde_vector_NEUSCHWARZ</title><path class="e5c71917-540d-4817-bbfd-b740862f7ff3" d="M18.72,12.34v10.3c0,3.71-1.84,5.43-5.73,5.43H8.5c-2.52,0-3.78-.72-4.5-2.19l-.33,1.83H0l.29-3.85V.21H4.57v8c.79-.9,2-1.33,3.93-1.33H13C16.88,6.87,18.72,8.6,18.72,12.34ZM14.43,13c0-1.91-.82-2.7-2.88-2.7H7.45c-2,0-2.88.79-2.88,2.7v8.89c0,1.94.83,2.7,2.88,2.7h4.1c2.06,0,2.88-.76,2.88-2.7Z"/><path class="e5c71917-540d-4817-bbfd-b740862f7ff3" d="M26.64,18.75V22c0,1.91.83,2.67,2.88,2.67h4c2,0,2.88-.76,2.88-2.67v-.21l4.25.39a1.82,1.82,0,0,1,0,.47c0,3.75-1.83,5.47-5.76,5.47H28.08c-3.89,0-5.72-1.72-5.72-5.47V12.34c0-3.7,1.83-5.47,5.72-5.47H35c3.93,0,5.76,1.77,5.76,5.47v6.41Zm0-5.72V15.3h9.79V13c0-1.95-.83-2.7-2.88-2.7h-4C27.47,10.33,26.64,11.08,26.64,13Z"/><path class="e5c71917-540d-4817-bbfd-b740862f7ff3" d="M60.73,24.26v3.45H43.16v-3.2L55,10.69H43.63V7.23H60.51v3.21L48.71,24.26Z"/><path class="e5c71917-540d-4817-bbfd-b740862f7ff3" d="M78.08,27.71l-.25-1.47c-.83,1.26-2.3,1.83-4.57,1.83H69c-3.92,0-5.75-1.72-5.75-5.47V20.73c0-3.6,1.76-5.22,5.75-5.22h6.77a2.85,2.85,0,0,1,1.44.25V13c0-1.95-.83-2.7-2.88-2.7H70.56c-2,0-2.88.75-2.88,2.66v.22l-4.28-.4v-.47c0-3.7,1.83-5.47,5.72-5.47h6.62c3.89,0,5.73,1.77,5.73,5.47V23.86l.28,3.85ZM77.18,22V19.11a2.42,2.42,0,0,0-1-.14H70.38c-2.09,0-2.85.72-2.85,2.59V22c0,1.87.76,2.59,2.85,2.59H74.3C76.43,24.62,77.18,23.9,77.18,22Z"/><path class="e5c71917-540d-4817-bbfd-b740862f7ff3" d="M103.64,12.34V27.71H99.36V13c0-1.91-.83-2.7-2.88-2.7H93c-2.06,0-2.85.79-2.85,2.7V27.71H85.82V.21h4.32V8.1c.79-.83,2-1.23,3.82-1.23h3.92C101.8,6.87,103.64,8.6,103.64,12.34Z"/><path class="e5c71917-540d-4817-bbfd-b740862f7ff3" d="M116.28,24.62v3.45h-2.92c-3.89,0-5.76-1.72-5.76-5.43V.21h4.32V21.92c0,1.94.79,2.7,2.85,2.7Z"/><path class="e5c71917-540d-4817-bbfd-b740862f7ff3" d="M175.73,27.71l-.32-1.8c-.76,1.48-2,2.16-4.47,2.16h-4.5c-3.92,0-5.76-1.72-5.76-5.43V12.34c0-3.74,1.84-5.47,5.76-5.47h4.5c1.95,0,3.13.43,3.93,1.33v-8h4.28V23.86l.25,3.85Zm-.86-5.79V13c0-1.91-.83-2.7-2.88-2.7h-4.14c-2,0-2.85.79-2.85,2.7v8.89c0,1.94.8,2.7,2.85,2.7H172C174,24.62,174.87,23.86,174.87,21.92Z"/><path class="e5c71917-540d-4817-bbfd-b740862f7ff3" d="M188,18.75V22c0,1.91.83,2.67,2.88,2.67h4c2,0,2.88-.76,2.88-2.67v-.21l4.25.39a1.82,1.82,0,0,1,0,.47c0,3.75-1.83,5.47-5.76,5.47h-6.87c-3.89,0-5.73-1.72-5.73-5.47V12.34c0-3.7,1.84-5.47,5.73-5.47h6.87c3.93,0,5.76,1.77,5.76,5.47v6.41ZM188,13V15.3h9.79V13c0-1.95-.83-2.7-2.88-2.7h-4C188.84,10.33,188,11.08,188,13Z"/><rect class="b166c7c2-5895-40cc-9c3a-5ff0d33d8fdc" x="144.11" y="11.68" width="4.08" height="17.99" rx="2.02" transform="translate(49.41 -90.81) rotate(41)"/><rect class="b166c7c2-5895-40cc-9c3a-5ff0d33d8fdc" x="128.72" y="-1.7" width="4.08" height="17.99" rx="2.02" transform="translate(36.86 -84) rotate(41)"/><rect class="abd44795-e968-4b24-be1b-e8a24f1f3913" x="136.42" y="-3.71" width="4.08" height="35.4" rx="2.02" transform="translate(43.14 -87.4) rotate(41)"/></svg>